# xmcd CD database file
#
# Track frame offsets:
#	150
#	13015
#	24775
#	40075
#	54400
#	68715
#	83362
#	102350
#	117725
#	131887
#	144175
#	158587
#	168175
#	183900
#	193100
#	204025
#	215687
#
# Disc length: 3115 seconds
#
# Revision: 0
# Processed by: cddbd v1.5.1PL0 Copyright (c) Steve Scherf et al.
# Submitted via: CDex 1.50
#
DISCID=d90c2911
DTITLE=宗次郎 - こころのうた・七 想
DYEAR=1991
DGENRE=New Age
TTITLE0=アニーローリー
TTITLE1=春風
TTITLE2=ロンドンデリーの歌
TTITLE3=ロッホ・ローモンド
TTITLE4=峠の我が家
TTITLE5=故郷の廃家
TTITLE6=懐かしきケンタッキーの我が家
TTITLE7=埴生の宿
TTITLE8=オールド・ブラック・ジョー
TTITLE9=金髪のジェニー
TTITLE10=旅愁
TTITLE11=庭の千草
TTITLE12=故郷を離るる歌
TTITLE13=赤いサラファン
TTITLE14=ともしび
TTITLE15=冬の星座
TTITLE16=螢の光
EXTD=YEAR: 1991
EXTT0=
EXTT1=
EXTT2=
EXTT3=
EXTT4=
EXTT5=
EXTT6=
EXTT7=
EXTT8=
EXTT9=
EXTT10=
EXTT11=
EXTT12=
EXTT13=
EXTT14=
EXTT15=
EXTT16=
PLAYORDER=
